inDegrees=no
num_controls=7
num_derivatives=13
num_iterations=235
num_multipliers=7
num_parameters=0
num_slacks=7
num_states=26
objective=0.509479
objective_accelerations=0.039672
objective_balance=0.003587
objective_effort=0.029024
objective_height=0.324228
objective_ligament=0.112967
solver_duration=3003.117120
status=Solve_Succeeded
success=true
DataType=double
version=3
OpenSimVersion=4.5
endheader
time	/jointset/ground_pelvis/pelvis_tilt/value	/jointset/ground_pelvis/pelvis_tx/value	/jointset/ground_pelvis/pelvis_ty/value	/jointset/hip_l/hip_flexion_l/value	/jointset/hip_l/hip_adduction_l/value	/jointset/hip_l/hip_rotation_l/value	/jointset/back/lumbar_extension/value	/jointset/patellofemoral_l/patellar_flexion_l/value	/jointset/knee_l/knee_flexion_l/value	/jointset/knee_l/knee_adduction_l/value	/jointset/knee_l/knee_rotation_l/value	/jointset/ankle_l/ankle_angle_l/value	/jointset/subtalar_l/subtalar_angle_l/value	/jointset/ground_pelvis/pelvis_tilt/speed	/jointset/ground_pelvis/pelvis_tx/speed	/jointset/ground_pelvis/pelvis_ty/speed	/jointset/hip_l/hip_flexion_l/speed	/jointset/hip_l/hip_adduction_l/speed	/jointset/hip_l/hip_rotation_l/speed	/jointset/back/lumbar_extension/speed	/jointset/patellofemoral_l/patellar_flexion_l/speed	/jointset/knee_l/knee_flexion_l/speed	/jointset/knee_l/knee_adduction_l/speed	/jointset/knee_l/knee_rotation_l/speed	/jointset/ankle_l/ankle_angle_l/speed	/jointset/subtalar_l/subtalar_angle_l/speed	/forceset/tau_hip_flexion_l	/forceset/tau_hip_adduction_l	/forceset/tau_hip_rotation_l	/forceset/tau_knee_flexion_l	/forceset/tau_ankle_angle_l	/forceset/tau_subtalar_angle_l	/forceset/tau_lumbar_extension	lambda_cid13_p0	lambda_cid13_p1	lambda_cid13_p2	lambda_cid13_p3	lambda_cid13_p4	lambda_cid13_p5	lambda_cid14_p0	/jointset/ground_pelvis/pelvis_tilt/accel	/jointset/ground_pelvis/pelvis_tx/accel	/jointset/ground_pelvis/pelvis_ty/accel	/jointset/hip_l/hip_flexion_l/accel	/jointset/hip_l/hip_adduction_l/accel	/jointset/hip_l/hip_rotation_l/accel	/jointset/back/lumbar_extension/accel	/jointset/patellofemoral_l/patellar_flexion_l/accel	/jointset/knee_l/knee_flexion_l/accel	/jointset/knee_l/knee_adduction_l/accel	/jointset/knee_l/knee_rotation_l/accel	/jointset/ankle_l/ankle_angle_l/accel	/jointset/subtalar_l/subtalar_angle_l/accel	gamma_cid13_p0	gamma_cid13_p1	gamma_cid13_p2	gamma_cid13_p3	gamma_cid13_p4	gamma_cid13_p5	gamma_cid14_p0
0.5	-0.1155711318944896	-0.0513169134586348	0.8305945272728156	0.8674797749664771	-0.3104383722297043	-0.1449874130543119	-0.7826439145941444	0.7672752585561271	0.7672752585561092	-0.07800146194554745	-0.1728584460739098	0.07388323243370977	0.008823593073400639	-0.2223499446383411	-0.1676748173218434	-0.3369655591549636	1.477436240670011	-0.1139233285823052	0.5389233239966873	-0.8589069641157224	1.504528107685636	1.504528107685617	-0.01369036881259805	0.01258124793713271	0.3141661172703406	-0.02001269848822072	-0.2866142537604734	0.0361533237300213	-0.006952086900533405	-0.1872283519108812	0.09343406959542003	0.04614415006794622	0.3331618093067317	-13.94587115314311	-18.88287179227583	4.023105120350014	-8.049190031046153	-697.7018221851976	-69.64863109709076	-15.62611086644902	0.4893230953727102	0.6714427859404172	-0.2170780097233334	-1.13063849286348	0.4258203342577538	0.01702823863817688	1.800096733572936	-0.3459379020280965	-0.3459379020280984	0.00185048286710092	0.03675896846579304	0.4560474791679344	0.5967155773762011	-1.638314982994787e-07	-4.384500654463628e-07	6.549303013677656e-07	1.576196131229084e-08	-1.672680740827823e-07	-9.030288947555106e-08	-1.485681680410919e-07
0.51	-0.1177699246290363	-0.05296000382731113	0.8272147938245161	0.8821948332267721	-0.3115568400293408	-0.1395982645305552	-0.7911417121854425	0.7822999674352104	0.7822999674352116	-0.07813973044375276	-0.1727314747903345	0.07704638659017665	0.008652320608882177	-0.2173821093042045	-0.1609353572453485	-0.338903104532323	1.465327100478585	-0.109757266679424	0.5387901747109478	-0.8405239186257566	1.500121115797902	1.500121115797869	-0.01395516043069446	0.01279524086843495	0.3183717041027671	-0.0142543339455425	-0.2937940588573824	0.03689722195306917	-0.006978915754103835	-0.1891887365180741	0.09188165996417312	0.04658805627004572	0.3400054293749462	-14.69049460435506	-18.9172823724514	3.996608323420288	-7.80127789344017	-702.0398523990606	-69.48807031494235	-15.07854676908003	0.5044714135649493	0.6763858980550239	-0.1704215712758326	-1.288318029448129	0.4139097337018636	-0.04605547136122708	1.876703784439448	-0.5319332832544481	-0.5319332832563751	-0.03947016134275141	0.01118978716738476	0.3888456221742088	0.5635074546548049	-1.58546150663433e-07	-3.931567105645463e-07	6.43702423856191e-07	1.844302543138287e-08	-1.551172257065567e-07	-7.307733640827466e-08	-1.423693243166649e-07
0.52	-0.1199182474780165	-0.05453546193931225	0.8238180191685364	0.8967813468357198	-0.3126332650868698	-0.134213961291491	-0.7994518202562948	0.7972718357051934	0.7972718357052159	-0.07828041209357307	-0.1726028695111076	0.08024880288234662	0.008538253902178682	-0.2122559675248344	-0.1541483659868037	-0.3403738006910253	1.451727310400522	-0.1055147801605986	0.5379542670579591	-0.8213690600265506	1.493959985865836	1.493959985865791	-0.01417299913658002	0.01290804706793619	0.3220185444109619	-0.008571546925216536	-0.3009738639542863	0.03764112017611772	-0.007005744607648103	-0.1911491211252673	0.09032925033292531	0.04703196247214531	0.346849049443165	-15.4334301531767	-18.95355612978938	3.972199944871353	-7.614095187818052	-706.3989873686945	-69.36297370753225	-14.52479337258706	0.5209843844193996	0.6809490223503843	-0.1237081659918779	-1.428768470191017	0.4411052574466151	-0.1235234348116755	1.954459355420945	-0.6967655108942735	-0.6967655108942616	0.01124106530926326	0.01652162210559283	0.3442981743216185	0.581600072905744	-1.499149155663814e-07	-3.323839557095324e-07	6.23252554222433e-07	2.13145903691237e-08	-1.385299059058261e-07	-5.226847912916834e-08	-1.330250950076557e-07
0.53	-0.122014750184382	-0.05604296803609631	0.8204089037246934	0.9112246769553366	-0.3136669488189927	-0.1288414950832742	-0.8075669755006389	0.8121731207178349	0.8121731207178436	-0.07842313386557494	-0.1724735934947687	0.08348461743408458	0.008480471441193176	-0.2070394524619425	-0.1473598840673197	-0.3413665165054149	1.436705249198576	-0.1012260045535913	0.5364126430229151	-0.8015815935598503	1.485974324758438	1.485974324758411	-0.01438728335702901	0.01291614040205565	0.3250176048265096	-0.003027390452906168	-0.3072902890320176	0.03804548450242647	-0.00703285599150221	-0.1937832017100532	0.08916648224458544	0.04731674267382425	0.3528831981518751	-16.05731917136946	-18.93463636152616	3.931076503851693	-7.248198818822722	-710.5899554101575	-69.24186684482416	-13.96552682553661	0.5227373503745922	0.6767477367209147	-0.07466351681500721	-1.573963330970603	0.4221133723400124	-0.1885495420927126	2.002949584667921	-0.8978445728519254	-0.8978445728491241	-0.04018647624507113	-0.01157380818522347	0.2586830197773692	0.5344333947461513	-1.452655740220705e-07	-2.778007419882008e-07	6.149037035337806e-07	2.757258438378211e-08	-1.297919740935481e-07	-3.248962295165764e-08	-1.259351269440611e-07
